<svg xmlns="http://www.w3.org/2000/svg" xmlns:xlink="http://www.w3.org/1999/xlink" width="1366" height="373" viewBox="0 0 1366 373">
  <defs>
    <clipPath id="clip-path">
      <rect id="Rectángulo_695" data-name="Rectángulo 695" width="1366" height="373" transform="translate(0 81)" fill="none" stroke="#707070" stroke-width="1"/>
    </clipPath>
    <linearGradient id="linear-gradient" x1="1.071" y1="0.5" x2="-0.125" y2="0.5" gradientUnits="objectBoundingBox">
      <stop offset="0" stop-color="#c31cb5"/>
      <stop offset="0.357" stop-color="#821d97"/>
      <stop offset="0.626" stop-color="#411f79"/>
      <stop offset="1" stop-color="#00205b"/>
    </linearGradient>
  </defs>
  <g id="Enmascarar_grupo_12" data-name="Enmascarar grupo 12" transform="translate(0 -81)" clip-path="url(#clip-path)">
    <g id="Grupo_730" data-name="Grupo 730">
      <rect id="Rectángulo_556" data-name="Rectángulo 556" width="1366" height="373" transform="translate(0 80)" fill="url(#linear-gradient)"/>
      <path id="Sustracción_7" data-name="Sustracción 7" d="M-10978.5,653a281.561,281.561,0,0,1-56.329-5.678,278.07,278.07,0,0,1-52.466-16.286,279.51,279.51,0,0,1-47.478-25.77,281.545,281.545,0,0,1-41.365-34.13,281.542,281.542,0,0,1-34.129-41.365,279.479,279.479,0,0,1-25.77-47.477,278.063,278.063,0,0,1-16.286-52.465A281.492,281.492,0,0,1-11258,373.5a281.482,281.482,0,0,1,5.679-56.328,278.05,278.05,0,0,1,16.286-52.465,279.472,279.472,0,0,1,25.77-47.477,281.551,281.551,0,0,1,34.129-41.365,281.543,281.543,0,0,1,41.365-34.129,279.513,279.513,0,0,1,47.478-25.77,278.107,278.107,0,0,1,52.466-16.286A281.563,281.563,0,0,1-10978.5,94a281.553,281.553,0,0,1,56.328,5.678,278.1,278.1,0,0,1,52.465,16.286,279.576,279.576,0,0,1,47.478,25.77,281.484,281.484,0,0,1,41.364,34.129,281.529,281.529,0,0,1,34.13,41.365,279.582,279.582,0,0,1,25.77,47.477,278.122,278.122,0,0,1,16.285,52.465A281.482,281.482,0,0,1-10699,373.5a281.492,281.492,0,0,1-5.679,56.329,278.129,278.129,0,0,1-16.285,52.465,279.585,279.585,0,0,1-25.77,47.477,281.524,281.524,0,0,1-34.13,41.365,281.485,281.485,0,0,1-41.364,34.13,279.571,279.571,0,0,1-47.478,25.77,278.091,278.091,0,0,1-52.465,16.286A281.552,281.552,0,0,1-10978.5,653Zm-4-420A128.645,128.645,0,0,0-11111,361.5,128.647,128.647,0,0,0-10982.5,490,128.646,128.646,0,0,0-10854,361.5,128.644,128.644,0,0,0-10982.5,233Z" transform="translate(11731 66)" fill="#f6f6f6" style="mix-blend-mode: color-burn;isolation: isolate"/>
      <path id="Sustracción_8" data-name="Sustracción 8" d="M-11044.5,521a215.078,215.078,0,0,1-43.027-4.338,212.363,212.363,0,0,1-40.076-12.44,213.439,213.439,0,0,1-36.267-19.685,215,215,0,0,1-31.6-26.07,215.045,215.045,0,0,1-26.07-31.6,213.548,213.548,0,0,1-19.685-36.266,212.664,212.664,0,0,1-12.44-40.076A215.147,215.147,0,0,1-11258,307.5a215.139,215.139,0,0,1,4.338-43.027,212.654,212.654,0,0,1,12.44-40.076,213.543,213.543,0,0,1,19.685-36.266,215.048,215.048,0,0,1,26.07-31.6,215,215,0,0,1,31.6-26.07,213.438,213.438,0,0,1,36.267-19.685,212.415,212.415,0,0,1,40.076-12.44A215.076,215.076,0,0,1-11044.5,94a215.069,215.069,0,0,1,43.027,4.338,212.373,212.373,0,0,1,40.075,12.44,213.5,213.5,0,0,1,36.267,19.685,215,215,0,0,1,31.6,26.07,214.99,214.99,0,0,1,26.07,31.6,213.659,213.659,0,0,1,19.685,36.266,212.423,212.423,0,0,1,12.439,40.076A215,215,0,0,1-10831,307.5a215,215,0,0,1-4.337,43.028,212.429,212.429,0,0,1-12.439,40.076,213.663,213.663,0,0,1-19.685,36.266,214.99,214.99,0,0,1-26.07,31.6,215,215,0,0,1-31.6,26.07,213.5,213.5,0,0,1-36.267,19.685,212.371,212.371,0,0,1-40.075,12.44A215.071,215.071,0,0,1-11044.5,521Zm-3.056-320.822a98.268,98.268,0,0,0-98.157,98.155,98.269,98.269,0,0,0,98.157,98.158,98.268,98.268,0,0,0,98.156-98.158A98.267,98.267,0,0,0-11047.556,200.178Z" transform="translate(12269 -180)" fill="#f6f6f6" style="mix-blend-mode: color-burn;isolation: isolate"/>
      <path id="Sustracción_9" data-name="Sustracción 9" d="M-11071.5,467a187.883,187.883,0,0,1-37.586-3.789,185.525,185.525,0,0,1-35.008-10.867,186.454,186.454,0,0,1-31.68-17.2,187.8,187.8,0,0,1-27.6-22.773,187.823,187.823,0,0,1-22.773-27.6,186.479,186.479,0,0,1-17.2-31.68,185.692,185.692,0,0,1-10.867-35.008A187.9,187.9,0,0,1-11258,280.5a187.891,187.891,0,0,1,3.789-37.586,185.683,185.683,0,0,1,10.867-35.008,186.476,186.476,0,0,1,17.2-31.68,187.828,187.828,0,0,1,22.773-27.6,187.794,187.794,0,0,1,27.6-22.773,186.456,186.456,0,0,1,31.68-17.2,185.579,185.579,0,0,1,35.008-10.867A187.882,187.882,0,0,1-11071.5,94a187.867,187.867,0,0,1,37.586,3.789,185.529,185.529,0,0,1,35.008,10.867,186.5,186.5,0,0,1,31.68,17.2,187.812,187.812,0,0,1,27.6,22.773,187.808,187.808,0,0,1,22.773,27.6,186.594,186.594,0,0,1,17.2,31.68,185.588,185.588,0,0,1,10.866,35.008A187.82,187.82,0,0,1-10885,280.5a187.827,187.827,0,0,1-3.789,37.587,185.593,185.593,0,0,1-10.866,35.008,186.6,186.6,0,0,1-17.2,31.68,187.806,187.806,0,0,1-22.773,27.6,187.811,187.811,0,0,1-27.6,22.773,186.494,186.494,0,0,1-31.68,17.2,185.525,185.525,0,0,1-35.008,10.867A187.868,187.868,0,0,1-11071.5,467Zm-2.669-280.25a85.84,85.84,0,0,0-85.744,85.742,85.841,85.841,0,0,0,85.744,85.744,85.841,85.841,0,0,0,85.743-85.744A85.84,85.84,0,0,0-11074.169,186.75Z" transform="translate(11322 -107)" fill="#f6f6f6" style="mix-blend-mode: color-burn;isolation: isolate"/>
    </g>
  </g>
</svg>
